# xmcd
# 
# Track frame offsets:
#     150
#     7710
#     30812
#     54277
#     75920
#     96045
#     102750
#     125602
#     143780
#     166152
#     175812
#     192050
#     211867
#     235155
#     256795
# 
# Disc length: 3761
# 
# Revision: 7
# Processed by: cddbd v1.5.2PL0 Copyright (c) Steve Scherf et al.
# Submitted via: BonkEnc v1.0.8
# 
DISCID=a00eaf0f
DTITLE=Bone Thugs-n-Harmony - The Art of War - WW2
DYEAR=1997
DGENRE=Rap
TTITLE0=Mo' Thug
TTITLE1=Thug Luv (Featuring 2Pac)
TTITLE2=Hatin Nation
TTITLE3=7 Sign (Featuring Maje$Ty)
TTITLE4=Wasteland Warriors (Featuring Souljah Boy)
TTITLE5=Neighborhood Slang
TTITLE6=U Ain't Bone
TTITLE7=Get Cha Thug On
TTITLE8=All Original
TTITLE9=Blaze It
TTITLE10=Let The Law End
TTITLE11=Whom Die They Lie
TTITLE12=Friends
TTITLE13=Evil Paradise
TTITLE14=Mo' Thug Family Tree
EXTD=
EXTT0=
EXTT1=
EXTT2=
EXTT3=
EXTT4=
EXTT5=
EXTT6=
EXTT7=
EXTT8=
EXTT9=
EXTT10=
EXTT11=
EXTT12=
EXTT13=
EXTT14=
PLAYORDER=
